<svg width="0" height="0" class="hidden">
  <symbol fill="none" xmlns="http://www.w3.org/2000/svg" viewBox="0 0 113 34" id="yandex">
    <path d="M13.746 4.75046H11.5548C7.57416 4.75046 5.47794 6.76816 5.47794 9.75364C5.47794 13.1408 6.92776 14.7093 9.91507 16.7271L12.3674 18.3796L5.27708 28.9702H0L6.35623 19.4952C2.68602 16.8768 0.633615 14.3423 0.633615 10.0221C0.633615 4.61716 4.38235 0.963379 11.5037 0.963379H18.5921V28.9721H13.7295V4.75046H13.746ZM38.6359 8.7037V28.9721H33.8482V20.5141H27.4408V28.9721H22.6531V8.7037H27.4408V16.7271H33.8482V8.7037H38.6359ZM60.2719 33.5936H55.8348V28.9556H45.0743V33.5936H40.6372V25.1777H42.1381C43.8235 21.7905 44.1576 15.385 44.1576 10.4311V8.6964H58.1355V25.1777H60.2719V33.5936ZM53.3478 12.4908H48.2771V13.0915C48.2771 16.5938 47.9119 22.1155 46.5752 25.185H53.3478V12.4908ZM71.0306 29.3555C64.9099 29.3555 61.4387 25.9355 61.4387 18.8799C61.4387 12.7574 64.2252 8.28921 70.0646 8.28921C74.8523 8.28921 77.9547 10.957 77.9547 17.9979V20.5324H66.3944C66.5934 23.9196 67.9282 25.5703 71.4323 25.5703C73.7677 25.5703 76.2693 24.6865 77.7538 23.6694V27.588C76.3533 28.5557 74.1001 29.3555 71.0306 29.3555ZM66.3944 16.9936H73.083V16.5956C73.083 14.0611 72.3526 12.0927 69.9788 12.0927C67.6945 12.0726 66.5277 13.7744 66.3944 16.9936ZM85.978 19.0132V28.9721H81.1739V8.7037H85.978V18.0454L92.7597 8.7037H97.5986L90.826 18.0454L98.5152 28.9556H93.0683L85.978 19.0132ZM98.2395 18.847C98.2395 12.6734 101.426 8.28738 107.552 8.28738C109.926 8.28738 111.706 8.68727 112.707 9.25332V13.3253C111.739 12.7245 109.92 12.0726 108.069 12.0726C104.932 12.0726 103.197 14.3259 103.197 18.7302C103.197 22.9171 104.616 25.5849 108.036 25.5849C110.054 25.5849 111.505 25.0681 112.707 24.2172V28.1212C111.538 28.9721 109.968 29.372 107.751 29.372C101.342 29.3555 98.2377 25.6196 98.2377 18.847H98.2395Z" fill="#21201F"></path>
  </symbol>
  <symbol fill="none" xmlns="http://www.w3.org/2000/svg" viewBox="0 0 55 52" id="Go">
    <path d="M18.0155 0.935547H37.4777C42.1248 0.936031 46.5814 2.78168 49.8673 6.06658C53.1533 9.35148 54.9996 13.8066 55.0001 18.4522V33.5494C55.0001 35.8496 54.5468 38.1273 53.6662 40.2524C52.7856 42.3775 51.4949 44.3084 49.8678 45.9348C48.2406 47.5612 46.309 48.8513 44.1831 49.7314C42.0572 50.6115 39.7787 51.0644 37.4777 51.0641H18.2164C15.9155 51.0644 13.637 50.6115 11.5111 49.7314C9.38517 48.8513 7.4535 47.5612 5.82638 45.9348C4.19925 44.3084 2.90854 42.3775 2.02794 40.2524C1.14733 38.1273 0.694092 35.8496 0.694092 33.5494V18.4522C0.694092 8.7763 8.33649 0.935547 18.0155 0.935547Z" fill="#21201F"></path>
    <path d="M22.7778 29.2782V28.4273H17.6523V24.6402H27.6459V29.1449C27.6459 36.2352 24.2587 40.3546 17.8532 40.3546C11.2468 40.3546 7.4104 35.1506 7.4104 25.975C7.4104 17.0277 11.5974 11.5498 19.2793 11.5498C22.1807 11.5498 24.6842 12.3185 26.0518 13.3192V17.2176C24.0868 16.0003 21.8245 15.3477 19.513 15.3314C14.4751 15.3314 12.3387 18.7515 12.3387 25.975C12.3387 32.9813 14.1081 36.5657 17.9445 36.5657C21.6092 36.584 22.7778 33.7482 22.7778 29.2782Z" fill="white"></path>
    <path d="M48.3708 29.8114C48.3708 36.6187 44.7005 40.3711 39.4235 40.3711C34.1464 40.3711 30.4762 36.6187 30.4762 29.8625C30.4762 23.0553 34.1464 19.3029 39.4235 19.3029C44.7005 19.3029 48.3708 23.0389 48.3708 29.8114ZM43.4151 29.8114C43.4151 25.1406 42.0803 23.09 39.4289 23.09C36.7776 23.09 35.441 25.1406 35.441 29.8625C35.441 34.5334 36.7758 36.5858 39.4289 36.5858C42.0821 36.5858 43.4151 34.517 43.4151 29.8114Z" fill="white"></path>
  </symbol>

  <symbol fill="none" xmlns="http://www.w3.org/2000/svg" viewBox="0 0 27 24" id="arrow-left">
    <path d="M24.75 10.5C25.5784 10.5 26.25 11.1716 26.25 12C26.25 12.8284 25.5784 13.5 24.75 13.5L24.75 10.5ZM1.18934 13.0607C0.603552 12.4749 0.603552 11.5251 1.18934 10.9393L10.7353 1.3934C11.3211 0.80761 12.2708 0.80761 12.8566 1.3934C13.4424 1.97918 13.4424 2.92893 12.8566 3.51472L4.37132 12L12.8566 20.4853C13.4424 21.0711 13.4424 22.0208 12.8566 22.6066C12.2708 23.1924 11.3211 23.1924 10.7353 22.6066L1.18934 13.0607ZM24.75 13.5L2.25 13.5L2.25 10.5L24.75 10.5L24.75 13.5Z" fill="#21201F"></path>
  </symbol>
  <symbol fill="none" xmlns="http://www.w3.org/2000/svg" viewBox="0 0 27 24" id="arrow-right">
    <path d="M2.25 10.5C1.42157 10.5 0.75 11.1716 0.75 12C0.75 12.8284 1.42157 13.5 2.25 13.5L2.25 10.5ZM25.8107 13.0607C26.3964 12.4749 26.3964 11.5251 25.8107 10.9393L16.2647 1.3934C15.6789 0.80761 14.7292 0.80761 14.1434 1.3934C13.5576 1.97918 13.5576 2.92893 14.1434 3.51472L22.6287 12L14.1434 20.4853C13.5576 21.0711 13.5576 22.0208 14.1434 22.6066C14.7292 23.1924 15.6789 23.1924 16.2647 22.6066L25.8107 13.0607ZM2.25 13.5L24.75 13.5L24.75 10.5L2.25 10.5L2.25 13.5Z" fill="#21201F"></path>
  </symbol>
</svg>