<?xml version="1.0" standalone="no"?>
<!DOCTYPE svg PUBLIC "-//W3C//DTD SVG 20010904//EN"
 "http://www.w3.org/TR/2001/REC-SVG-20010904/DTD/svg10.dtd">
<svg version="1.0" xmlns="http://www.w3.org/2000/svg"
 width="880.000000pt" height="880.000000pt" viewBox="0 0 880.000000 880.000000"
 preserveAspectRatio="xMidYMid meet">
<metadata>
Created by potrace 1.14, written by Peter Selinger 2001-2017
</metadata>
<g transform="translate(0.000000,880.000000) scale(0.100000,-0.100000)"
fill="#000000" stroke="none">
<path d="M2728 8405 c-3 -3 -45 -7 -94 -10 -49 -3 -107 -8 -129 -10 -56 -7
-126 -17 -150 -21 -11 -3 -36 -7 -55 -10 -19 -3 -51 -9 -70 -14 -19 -5 -46
-11 -60 -14 -68 -12 -315 -89 -375 -116 -11 -5 -42 -18 -70 -30 -55 -23 -230
-111 -285 -143 -61 -35 -194 -121 -208 -134 -7 -7 -17 -13 -22 -13 -5 0 -16
-7 -24 -16 -9 -9 -38 -32 -65 -52 -210 -159 -485 -458 -606 -660 -5 -9 -13
-19 -16 -22 -3 -3 -14 -18 -23 -35 -9 -16 -25 -43 -36 -60 -10 -16 -29 -51
-42 -77 -13 -27 -26 -48 -30 -48 -5 0 -8 -6 -8 -12 0 -7 -18 -48 -40 -90 -22
-43 -37 -78 -35 -78 2 0 -7 -21 -20 -47 -43 -87 -135 -384 -158 -513 -3 -14
-10 -54 -17 -90 -14 -72 -17 -94 -26 -190 -3 -36 -7 -81 -9 -100 -5 -48 -5
-2765 0 -2815 14 -137 23 -209 30 -245 3 -14 8 -41 11 -60 3 -19 17 -84 32
-145 14 -60 27 -112 27 -115 7 -28 27 -98 32 -110 4 -8 7 -17 8 -20 20 -69 49
-149 66 -187 11 -26 34 -77 50 -113 16 -36 34 -72 39 -80 5 -8 22 -37 36 -65
30 -56 148 -247 176 -285 114 -152 201 -255 302 -355 119 -118 211 -201 244
-219 9 -5 22 -15 27 -21 14 -17 154 -111 260 -177 86 -52 350 -188 391 -201
10 -3 54 -19 97 -35 42 -17 77 -27 77 -23 0 3 4 1 8 -6 4 -6 19 -14 32 -17 14
-2 68 -16 120 -30 52 -14 109 -27 125 -30 17 -3 50 -10 75 -15 84 -18 156 -27
305 -38 178 -14 3610 -7 3610 7 0 1 11 3 25 5 34 3 110 14 136 19 12 2 39 7
60 11 63 10 276 64 361 92 43 14 83 26 88 28 6 1 23 7 38 13 16 7 35 12 43 12
8 0 14 4 14 8 0 5 6 9 13 9 18 0 198 89 297 146 47 27 94 55 105 61 11 6 61
39 110 72 190 129 357 275 502 440 45 51 70 81 136 164 77 97 228 344 295 482
23 48 43 91 43 95 0 5 6 17 13 28 28 46 124 321 140 405 3 14 7 35 10 47 12
49 17 69 22 103 2 19 9 58 14 85 32 172 34 259 34 1705 0 1238 -3 1466 -18
1550 -2 14 -7 48 -11 75 -4 28 -9 59 -11 70 -2 11 -5 34 -8 50 -2 17 -8 39
-12 49 -4 10 -8 28 -9 40 -1 12 -4 28 -8 36 -3 8 -11 38 -18 65 -6 28 -15 55
-18 60 -3 6 -7 19 -8 30 -2 11 -7 29 -12 40 -21 49 -71 181 -71 187 0 13 -84
183 -95 190 -5 4 -7 8 -2 8 4 0 -3 17 -16 38 -12 20 -29 51 -37 67 -8 17 -18
35 -22 40 -4 6 -40 60 -80 120 -39 61 -74 112 -77 115 -4 3 -18 21 -32 40 -15
19 -35 45 -45 57 -11 11 -35 41 -54 65 -95 118 -455 448 -489 448 -5 0 -11 4
-13 8 -3 8 -154 112 -163 112 -2 0 -21 12 -42 26 -45 30 -335 174 -362 179
-11 2 -33 11 -50 19 -17 9 -34 17 -38 17 -12 2 -23 6 -85 28 -32 11 -58 18
-58 15 0 -4 -6 -2 -12 3 -11 9 -49 20 -130 39 -10 2 -26 6 -35 8 -35 9 -218
44 -233 45 -22 1 -65 8 -65 10 0 3 -102 10 -233 15 -67 3 -127 8 -132 11 -6 3
-10 1 -10 -5 0 -6 -5 -8 -11 -4 -9 5 -88 8 -114 4 -28 -5 -62 -4 -82 2 -12 4
-25 3 -28 -3 -4 -5 -13 -6 -22 -1 -8 5 -32 6 -52 2 -21 -4 -47 -3 -59 1 -12 5
-24 4 -27 -2 -4 -5 -13 -6 -22 0 -9 4 -30 5 -47 1 -17 -4 -40 -4 -51 0 -11 4
-27 4 -36 -1 -9 -5 -19 -6 -22 -3 -5 6 -89 8 -109 4 -21 -4 -77 -3 -91 3 -9 3
-19 2 -22 -4 -4 -5 -11 -6 -17 -3 -9 6 -88 8 -113 4 -26 -5 -52 -4 -71 2 -11
3 -27 3 -34 -2 -7 -5 -23 -5 -34 -1 -12 4 -34 4 -51 1 -16 -3 -40 -3 -52 1
-13 5 -25 4 -28 -2 -4 -5 -13 -6 -22 -1 -8 5 -32 6 -52 2 -21 -4 -47 -3 -59 1
-12 5 -24 4 -27 -2 -4 -5 -11 -6 -17 -3 -9 6 -87 8 -113 4 -17 -3 -78 -1 -108
3 -15 3 -30 1 -33 -4 -2 -5 -15 -4 -27 0 -12 5 -32 5 -44 0 -13 -5 -23 -5 -23
-1 0 6 -78 7 -87 2 -8 -5 -72 -2 -86 3 -9 3 -19 2 -22 -4 -4 -5 -11 -6 -17 -3
-9 6 -87 8 -113 4 -28 -5 -62 -4 -82 2 -12 4 -25 3 -28 -3 -4 -5 -13 -6 -22
-1 -8 5 -32 6 -52 2 -21 -4 -47 -3 -59 1 -12 5 -24 4 -27 -2 -4 -5 -13 -6 -22
0 -9 4 -30 5 -47 1 -17 -4 -40 -4 -51 0 -11 4 -27 4 -36 -1 -9 -5 -19 -6 -22
-3 -5 6 -89 8 -109 4 -21 -4 -77 -3 -91 3 -9 3 -19 2 -22 -4 -4 -5 -11 -6 -17
-3 -9 6 -88 8 -113 4 -26 -5 -52 -4 -71 2 -11 3 -27 3 -34 -2 -7 -4 -22 -5
-34 -1 -11 5 -34 5 -51 1 -17 -4 -39 -4 -50 0 -11 4 -32 4 -46 0 -14 -4 -33
-4 -41 1 -8 5 -17 6 -20 4z m317 -1685 c25 4 45 4 45 1 0 -3 38 -6 85 -6 47 0
85 -4 85 -8 0 -5 4 -6 9 -3 5 4 44 1 88 -5 43 -6 89 -13 103 -15 21 -3 117
-24 183 -40 9 -2 26 -6 37 -8 11 -3 25 -8 30 -11 5 -3 20 -8 32 -11 39 -9 35
-7 143 -52 81 -33 176 -81 192 -97 7 -8 22 -16 32 -20 18 -6 19 -20 19 -313 0
-168 -2 -310 -4 -314 -3 -4 -23 4 -46 18 -60 38 -280 141 -338 159 -3 1 -36
11 -75 24 -38 12 -77 24 -85 26 -8 2 -44 10 -80 19 -84 19 -114 25 -175 32
-27 3 -63 7 -80 9 -43 6 -231 6 -291 1 -90 -8 -147 -18 -214 -37 -25 -7 -49
-13 -55 -15 -49 -11 -198 -85 -236 -117 -10 -9 -22 -17 -26 -17 -8 0 -18 -10
-101 -92 -35 -35 -76 -83 -92 -108 -16 -25 -34 -50 -39 -56 -9 -11 -63 -113
-66 -124 -1 -3 -11 -25 -22 -50 -11 -25 -25 -63 -32 -85 -7 -22 -15 -47 -18
-55 -11 -27 -39 -132 -48 -172 -35 -179 -48 -282 -61 -488 -12 -190 -6 -560
11 -730 8 -79 17 -165 20 -180 1 -8 6 -40 11 -70 4 -30 8 -57 9 -60 1 -3 7
-32 14 -65 18 -89 50 -203 74 -265 12 -30 22 -58 23 -62 1 -5 2 -10 3 -13 0
-3 1 -8 0 -11 0 -4 3 -10 8 -13 4 -3 19 -28 31 -56 53 -112 144 -228 237 -301
46 -36 155 -99 155 -90 0 4 14 0 30 -9 40 -21 118 -36 210 -41 98 -6 87 -6
150 1 300 34 483 186 585 486 25 72 51 193 61 279 3 25 7 56 10 70 11 58 18
459 9 468 -2 3 -184 4 -405 4 -289 0 -400 4 -401 12 -1 6 -2 142 -3 303 l-1
292 23 4 c12 2 25 1 28 -4 2 -4 15 -4 27 0 12 5 32 5 44 0 13 -5 25 -4 28 1 4
7 13 6 25 0 11 -6 21 -6 25 -1 3 5 17 6 33 2 15 -5 37 -4 50 0 13 5 22 4 22
-1 0 -6 9 -6 23 -1 13 5 30 6 37 1 7 -5 23 -5 35 0 12 5 28 4 35 0 8 -5 18 -6
23 -3 12 7 77 10 77 3 0 -7 70 -4 77 3 3 3 16 2 29 -3 14 -6 26 -6 29 0 4 6
13 7 24 1 9 -5 23 -6 31 -1 7 4 24 4 36 0 14 -6 26 -5 29 0 4 7 13 6 25 0 11
-6 21 -6 25 -1 3 5 17 6 33 2 15 -5 37 -4 50 0 13 5 22 4 22 -1 0 -6 9 -6 23
-1 13 5 29 6 36 2 7 -5 30 -5 51 -1 21 4 44 4 51 -1 7 -4 23 -3 36 2 13 5 23
5 23 -1 0 -5 12 -5 28 -1 15 5 37 5 49 0 13 -5 25 -4 28 1 4 7 13 6 25 0 11
-6 21 -6 25 -1 3 6 17 6 35 1 17 -5 32 -5 35 0 3 5 16 5 30 0 16 -6 25 -6 25
0 0 6 9 6 24 0 13 -5 27 -6 30 -3 8 8 66 10 66 2 0 -4 8 -6 17 -5 16 1 17 -26
18 -366 0 -201 -3 -364 -7 -361 -5 2 -8 -6 -9 -19 -6 -157 -14 -295 -23 -363
-4 -27 -18 -115 -22 -140 -12 -60 -14 -72 -19 -92 -20 -90 -27 -118 -34 -128
-3 -5 -6 -16 -8 -24 -3 -25 -34 -115 -55 -161 -42 -95 -93 -196 -105 -208 -7
-7 -13 -17 -13 -22 0 -29 -190 -248 -282 -325 -39 -32 -180 -125 -191 -125 -6
0 -18 -6 -26 -13 -17 -14 -152 -73 -161 -70 -3 1 -10 -3 -15 -7 -6 -5 -23 -11
-38 -14 -15 -2 -31 -7 -37 -11 -6 -4 -23 -9 -38 -12 -41 -8 -57 -11 -57 -13 0
-1 -9 -3 -20 -5 -11 -2 -36 -7 -55 -11 -104 -20 -207 -28 -370 -27 -185 1
-258 8 -389 38 -129 31 -200 55 -311 110 -115 56 -285 167 -273 179 4 3 0 6
-7 6 -21 0 -163 150 -238 252 -62 84 -88 126 -149 238 -62 114 -151 356 -188
510 -10 41 -20 82 -23 90 -2 8 -6 24 -8 35 -1 11 -5 34 -9 50 -3 17 -8 44 -10
60 -2 17 -7 41 -10 55 -3 14 -8 48 -11 75 -3 28 -7 68 -10 90 -10 79 -12 102
-19 230 -6 107 -10 437 -6 455 1 3 4 45 6 94 3 48 7 109 10 135 3 25 8 66 11
91 3 25 7 56 10 70 2 14 6 41 9 60 3 19 7 46 10 60 3 14 8 39 11 55 2 17 9 46
14 65 5 19 11 46 14 60 2 14 13 53 24 87 11 34 17 65 14 68 -3 3 -1 5 5 5 5 0
10 6 10 13 0 11 29 93 64 182 7 17 12 33 11 38 -1 4 2 7 8 7 5 0 10 5 10 12 0
40 182 338 260 428 117 133 232 236 355 316 90 58 237 134 260 134 8 0 15 3
15 8 0 4 28 16 63 26 34 11 67 22 72 25 6 3 12 6 15 6 3 1 48 11 100 24 113
27 111 27 175 36 28 3 66 9 85 11 19 3 72 7 118 8 46 2 86 7 90 10 4 4 8 3 10
-2 1 -5 23 -6 47 -2z m3455 -1263 c14 -4 36 -8 50 -11 87 -17 157 -35 185 -46
11 -4 47 -18 80 -31 52 -19 94 -40 190 -93 59 -33 143 -100 234 -187 57 -54
240 -303 232 -316 0 -2 14 -36 33 -75 29 -63 50 -120 97 -265 5 -18 12 -42 14
-55 5 -25 12 -60 21 -98 7 -33 12 -64 19 -128 4 -29 8 -63 11 -75 2 -12 7 -89
10 -171 2 -82 7 -153 10 -158 3 -4 2 -8 -3 -8 -4 0 -8 -28 -9 -63 0 -63 -10
-194 -18 -255 -17 -118 -15 -109 -50 -247 -13 -55 -30 -113 -37 -130 -7 -16
-13 -35 -14 -40 -7 -32 -71 -171 -110 -239 -25 -44 -45 -83 -45 -87 0 -4 -3
-9 -7 -11 -5 -1 -34 -37 -65 -78 -87 -113 -231 -243 -339 -304 -102 -58 -243
-119 -299 -131 -8 -2 -33 -8 -55 -14 -22 -5 -53 -13 -70 -15 -16 -3 -40 -8
-52 -10 -87 -18 -340 -25 -423 -13 -19 3 -57 9 -85 12 -57 8 -230 50 -260 64
-11 5 -38 17 -60 26 -442 187 -727 591 -821 1160 -23 140 -27 204 -27 430 1
197 3 236 19 339 3 23 8 55 10 71 2 17 6 41 9 55 3 14 9 38 12 55 31 173 155
466 252 595 14 19 25 36 24 37 -11 12 206 225 290 284 166 117 382 201 582
225 28 4 52 8 54 10 6 5 383 -3 411 -9z"/>
<path d="M6170 4858 c-71 -10 -77 -11 -124 -27 -176 -60 -308 -231 -372 -481
-17 -66 -19 -79 -29 -160 -3 -24 -8 -56 -10 -70 -23 -118 -22 -539 1 -695 3
-22 7 -51 9 -65 9 -62 17 -101 41 -185 15 -49 30 -94 35 -99 5 -6 9 -16 9 -22
0 -28 78 -143 136 -201 103 -103 214 -146 379 -146 292 -2 461 126 569 431 14
39 24 72 21 72 -2 0 0 12 5 26 58 152 73 784 23 984 -3 14 -5 29 -4 33 1 5 -4
27 -10 50 -6 23 -13 49 -14 58 -12 62 -92 249 -106 249 -5 0 -9 6 -9 13 0 22
-87 113 -142 149 -52 34 -123 66 -163 74 -11 2 -32 6 -47 10 -44 9 -139 10
-198 2z"/>
</g>
</svg>
